<svg width="148" height="43" viewBox="0 0 148 43" fill="none" xmlns="http://www.w3.org/2000/svg">
<rect width="148" height="43" rx="8" fill="#18273D"/>
<path d="M24.6481 25.604V26.5H17.7181V16.7H24.4381V17.596H18.7541V21.082H23.8221V21.964H18.7541V25.604H24.6481ZM30.6253 19.08C31.5493 19.08 32.282 19.3507 32.8233 19.892C33.374 20.424 33.6493 21.2033 33.6493 22.23V26.5H32.6553V22.328C32.6553 21.5627 32.464 20.9793 32.0813 20.578C31.6986 20.1767 31.1526 19.976 30.4433 19.976C29.65 19.976 29.02 20.214 28.5533 20.69C28.096 21.1567 27.8673 21.8053 27.8673 22.636V26.5H26.8733V19.136H27.8253V20.494C28.096 20.046 28.4693 19.7007 28.9453 19.458C29.4306 19.206 29.9906 19.08 30.6253 19.08ZM41.986 26.57C41.3886 26.57 40.8146 26.486 40.264 26.318C39.7226 26.1407 39.298 25.9213 38.99 25.66L39.438 24.876C39.746 25.1187 40.1333 25.3193 40.6 25.478C41.0666 25.6273 41.552 25.702 42.056 25.702C42.728 25.702 43.2226 25.5993 43.54 25.394C43.8666 25.1793 44.03 24.8807 44.03 24.498C44.03 24.2273 43.9413 24.0173 43.764 23.868C43.5866 23.7093 43.3626 23.5927 43.092 23.518C42.8213 23.434 42.462 23.3547 42.014 23.28C41.4166 23.168 40.936 23.056 40.572 22.944C40.208 22.8227 39.8953 22.622 39.634 22.342C39.382 22.062 39.256 21.6747 39.256 21.18C39.256 20.564 39.5126 20.06 40.026 19.668C40.5393 19.276 41.2533 19.08 42.168 19.08C42.644 19.08 43.12 19.1453 43.596 19.276C44.072 19.3973 44.464 19.5607 44.772 19.766L44.338 20.564C43.7313 20.144 43.008 19.934 42.168 19.934C41.5333 19.934 41.0526 20.046 40.726 20.27C40.4086 20.494 40.25 20.788 40.25 21.152C40.25 21.432 40.3386 21.656 40.516 21.824C40.7026 21.992 40.9313 22.118 41.202 22.202C41.4726 22.2767 41.846 22.356 42.322 22.44C42.91 22.552 43.3813 22.664 43.736 22.776C44.0906 22.888 44.394 23.0793 44.646 23.35C44.898 23.6207 45.024 23.994 45.024 24.47C45.024 25.114 44.7533 25.6273 44.212 26.01C43.68 26.3833 42.938 26.57 41.986 26.57ZM49.4376 19.08C50.3989 19.08 51.1363 19.3227 51.6496 19.808C52.1629 20.284 52.4196 20.9933 52.4196 21.936V26.5H51.4676V25.352C51.2436 25.7347 50.9123 26.0333 50.4736 26.248C50.0443 26.4627 49.5309 26.57 48.9336 26.57C48.1123 26.57 47.4589 26.374 46.9736 25.982C46.4883 25.59 46.2456 25.072 46.2456 24.428C46.2456 23.8027 46.4696 23.2987 46.9176 22.916C47.3749 22.5333 48.0983 22.342 49.0876 22.342H51.4256V21.894C51.4256 21.2593 51.2483 20.7787 50.8936 20.452C50.5389 20.116 50.0209 19.948 49.3396 19.948C48.8729 19.948 48.4249 20.0273 47.9956 20.186C47.5663 20.3353 47.1976 20.5453 46.8896 20.816L46.4416 20.074C46.8149 19.7567 47.2629 19.514 47.7856 19.346C48.3083 19.1687 48.8589 19.08 49.4376 19.08ZM49.0876 25.786C49.6476 25.786 50.1283 25.66 50.5296 25.408C50.9309 25.1467 51.2296 24.7733 51.4256 24.288V23.084H49.1156C47.8556 23.084 47.2256 23.5227 47.2256 24.4C47.2256 24.8293 47.3889 25.17 47.7156 25.422C48.0423 25.6647 48.4996 25.786 49.0876 25.786ZM61.1707 19.136L57.8947 26.5H56.8727L53.6107 19.136H54.6467L57.4047 25.408L60.1907 19.136H61.1707ZM65.3755 26.57C64.6662 26.57 64.0268 26.4113 63.4575 26.094C62.8882 25.7673 62.4402 25.3193 62.1135 24.75C61.7868 24.1807 61.6235 23.5367 61.6235 22.818C61.6235 22.0993 61.7868 21.4553 62.1135 20.886C62.4402 20.3167 62.8882 19.8733 63.4575 19.556C64.0268 19.2387 64.6662 19.08 65.3755 19.08C66.0848 19.08 66.7242 19.2387 67.2935 19.556C67.8628 19.8733 68.3062 20.3167 68.6235 20.886C68.9502 21.4553 69.1135 22.0993 69.1135 22.818C69.1135 23.5367 68.9502 24.1807 68.6235 24.75C68.3062 25.3193 67.8628 25.7673 67.2935 26.094C66.7242 26.4113 66.0848 26.57 65.3755 26.57ZM65.3755 25.688C65.8982 25.688 66.3648 25.5713 66.7755 25.338C67.1955 25.0953 67.5222 24.7547 67.7555 24.316C67.9888 23.8773 68.1055 23.378 68.1055 22.818C68.1055 22.258 67.9888 21.7587 67.7555 21.32C67.5222 20.8813 67.1955 20.5453 66.7755 20.312C66.3648 20.0693 65.8982 19.948 65.3755 19.948C64.8528 19.948 64.3815 20.0693 63.9615 20.312C63.5508 20.5453 63.2242 20.8813 62.9815 21.32C62.7482 21.7587 62.6315 22.258 62.6315 22.818C62.6315 23.378 62.7482 23.8773 62.9815 24.316C63.2242 24.7547 63.5508 25.0953 63.9615 25.338C64.3815 25.5713 64.8528 25.688 65.3755 25.688ZM71.1428 19.136H72.1368V26.5H71.1428V19.136ZM71.6468 17.526C71.4415 17.526 71.2688 17.456 71.1288 17.316C70.9888 17.176 70.9188 17.008 70.9188 16.812C70.9188 16.6253 70.9888 16.462 71.1288 16.322C71.2688 16.182 71.4415 16.112 71.6468 16.112C71.8522 16.112 72.0248 16.182 72.1648 16.322C72.3048 16.4527 72.3748 16.6113 72.3748 16.798C72.3748 17.0033 72.3048 17.176 72.1648 17.316C72.0248 17.456 71.8522 17.526 71.6468 17.526ZM75.8546 20.578C76.0879 20.0833 76.4333 19.71 76.8906 19.458C77.3573 19.206 77.9313 19.08 78.6126 19.08V20.046L78.3746 20.032C77.5999 20.032 76.9933 20.27 76.5546 20.746C76.1159 21.222 75.8966 21.8893 75.8966 22.748V26.5H74.9026V19.136H75.8546V20.578ZM88.0638 16.7C89.3145 16.7 90.2945 16.9987 91.0038 17.596C91.7131 18.1933 92.0678 19.0147 92.0678 20.06C92.0678 21.1053 91.7131 21.9267 91.0038 22.524C90.2945 23.112 89.3145 23.406 88.0638 23.406H85.4318V26.5H84.3958V16.7H88.0638ZM88.0358 22.496C89.0065 22.496 89.7485 22.286 90.2618 21.866C90.7751 21.4367 91.0318 20.8347 91.0318 20.06C91.0318 19.2667 90.7751 18.66 90.2618 18.24C89.7485 17.8107 89.0065 17.596 88.0358 17.596H85.4318V22.496H88.0358ZM94.2346 16.112H95.2286V26.5H94.2346V16.112ZM104.63 19.136V26.5H103.678V25.156C103.417 25.604 103.058 25.954 102.6 26.206C102.143 26.4487 101.62 26.57 101.032 26.57C100.071 26.57 99.3104 26.304 98.7504 25.772C98.1997 25.2307 97.9244 24.442 97.9244 23.406V19.136H98.9184V23.308C98.9184 24.0827 99.1097 24.6707 99.4924 25.072C99.8751 25.4733 100.421 25.674 101.13 25.674C101.905 25.674 102.516 25.4407 102.964 24.974C103.412 24.498 103.636 23.84 103.636 23V19.136H104.63ZM109.388 26.57C108.791 26.57 108.217 26.486 107.666 26.318C107.125 26.1407 106.7 25.9213 106.392 25.66L106.84 24.876C107.148 25.1187 107.536 25.3193 108.002 25.478C108.469 25.6273 108.954 25.702 109.458 25.702C110.13 25.702 110.625 25.5993 110.942 25.394C111.269 25.1793 111.432 24.8807 111.432 24.498C111.432 24.2273 111.344 24.0173 111.166 23.868C110.989 23.7093 110.765 23.5927 110.494 23.518C110.224 23.434 109.864 23.3547 109.416 23.28C108.819 23.168 108.338 23.056 107.974 22.944C107.61 22.8227 107.298 22.622 107.036 22.342C106.784 22.062 106.658 21.6747 106.658 21.18C106.658 20.564 106.915 20.06 107.428 19.668C107.942 19.276 108.656 19.08 109.57 19.08C110.046 19.08 110.522 19.1453 110.998 19.276C111.474 19.3973 111.866 19.5607 112.174 19.766L111.74 20.564C111.134 20.144 110.41 19.934 109.57 19.934C108.936 19.934 108.455 20.046 108.128 20.27C107.811 20.494 107.652 20.788 107.652 21.152C107.652 21.432 107.741 21.656 107.918 21.824C108.105 21.992 108.334 22.118 108.604 22.202C108.875 22.2767 109.248 22.356 109.724 22.44C110.312 22.552 110.784 22.664 111.138 22.776C111.493 22.888 111.796 23.0793 112.048 23.35C112.3 23.6207 112.426 23.994 112.426 24.47C112.426 25.114 112.156 25.6273 111.614 26.01C111.082 26.3833 110.34 26.57 109.388 26.57Z" fill="white"/>
<path d="M131 14.8334L129.825 16.0084L134.475 20.6667H124.333V22.3334H134.475L129.825 26.9917L131 28.1667L137.667 21.5L131 14.8334Z" fill="white"/>
</svg>
